# xmcd
#
# Track frame offsets:
#	150
#	17346
#	33285
#	45100
#	62320
#	80151
#	95004
#	108306
#	121387
#	138368
#	150214
#	165724
#
# Disc length: 2390 seconds
#
# Revision: 0
# Processed by: cddbd v1.5.2PL0 Copyright (c) Steve Scherf et al.
# Submitted via: EasyCDDAExtractor 12.0.0.1
#
DISCID=8209540c
DTITLE=Kicki Danielsson - Upp Till Dans 9
DYEAR=2009
DGENRE=General Country
TTITLE0=En Timme För Sent
TTITLE1=Dagar Som Kommer Och Går
TTITLE2=Kärleken Har Fått Vingar
TTITLE3=U.S. Of America
TTITLE4=Papaya Coconut
TTITLE5=I Mitt Hjärta Brinner Lågan
TTITLE6=I. O. U.
TTITLE7=Dag Efter Dag
TTITLE8=Comment CA Va
TTITLE9=Här Är Jag Igen
TTITLE10=En Gång Till
TTITLE11=Talking In Your Sleep
EXTD=
EXTT0=
EXTT1=
EXTT2=
EXTT3=
EXTT4=
EXTT5=
EXTT6=
EXTT7=
EXTT8=
EXTT9=
EXTT10=
EXTT11=
PLAYORDER=
